<svg width="21" height="23" viewBox="0 0 21 23" fill="none" xmlns="http://www.w3.org/2000/svg">
<g clip-path="url(#clip0_286_3014)">
<path d="M12.8333 2.55555V1.67388C12.8349 1.62354 12.8274 1.57335 12.8112 1.52618C12.795 1.47902 12.7706 1.43581 12.7391 1.39902C12.7077 1.36223 12.67 1.33259 12.6281 1.31178C12.5862 1.29098 12.541 1.27942 12.495 1.27777H8.505C8.45903 1.27942 8.41381 1.29098 8.37192 1.31178C8.33003 1.33259 8.29229 1.36223 8.26087 1.39902C8.22945 1.43581 8.20496 1.47902 8.18879 1.52618C8.17263 1.57335 8.16511 1.62354 8.16667 1.67388V2.55555H5.83333C5.67595 2.56981 5.52905 2.64771 5.42122 2.77407C5.31339 2.90043 5.25236 3.06622 5.25 3.23916V21.128C5.26035 21.2896 5.32635 21.4409 5.43465 21.5512C5.54294 21.6615 5.68545 21.7226 5.83333 21.7222H15.1667C15.3155 21.7225 15.4588 21.6605 15.5672 21.5488C15.6757 21.4372 15.7411 21.2844 15.75 21.1217V3.23277C15.7462 3.06094 15.6845 2.89672 15.5769 2.7717C15.4692 2.64668 15.3231 2.56969 15.1667 2.55555H12.8333ZM11.8183 16.2533C11.9011 16.4355 11.9144 16.6462 11.8553 16.8391C11.7963 17.032 11.6696 17.1913 11.5033 17.2819C11.337 17.3726 11.1446 17.3872 10.9685 17.3225C10.7924 17.2578 10.6469 17.1191 10.5642 16.9369L7.37917 9.9411L10.8792 10.58L9.54333 8.02444C9.49737 7.93718 9.46755 7.84086 9.45557 7.74099C9.4436 7.64111 9.4497 7.53962 9.47353 7.44233C9.49737 7.34503 9.53847 7.25383 9.59448 7.17393C9.6505 7.09403 9.72033 7.027 9.8 6.97666C9.87967 6.92632 9.96761 6.89366 10.0588 6.88054C10.15 6.86743 10.2427 6.87411 10.3315 6.90021C10.4203 6.92632 10.5036 6.97133 10.5765 7.03268C10.6495 7.09403 10.7107 7.17051 10.7567 7.25777L13.5742 12.6053L9.85833 11.9472L11.8183 16.2533Z" fill="white"/>
</g>
<defs>
<clipPath id="clip0_286_3014">
<rect width="21" height="23" fill="white"/>
</clipPath>
</defs>
</svg>
