<svg width="21" height="20" viewBox="0 0 21 20" fill="none" xmlns="http://www.w3.org/2000/svg">
<g clip-path="url(#clip0_286_3007)">
<path d="M9.03 0V2.6332C5.86824 3.206 3.3663 5.5888 2.76486 8.6H0V11.4H2.76486C3.3663 14.4112 5.86824 16.794 9.03 17.3668V20H11.97V17.3668C15.1318 16.794 17.6337 14.4112 18.2351 11.4H21V8.6H18.2351C17.6337 5.5888 15.1318 3.206 11.97 2.6332V0H9.03ZM10.5 4.5C11.259 4.49802 12.0109 4.63893 12.7125 4.91463C13.414 5.19033 14.0515 5.59538 14.5882 6.1065C15.1248 6.61762 15.5502 7.22472 15.8396 7.8929C16.1291 8.56109 16.2771 9.27717 16.275 10C16.2771 10.7228 16.1291 11.4389 15.8396 12.1071C15.5502 12.7753 15.1248 13.3824 14.5882 13.8935C14.0515 14.4046 13.414 14.8097 12.7125 15.0854C12.0109 15.3611 11.259 15.502 10.5 15.5C9.74103 15.502 8.98914 15.3611 8.28755 15.0854C7.58595 14.8097 6.9485 14.4046 6.41182 13.8935C5.87515 13.3824 5.44985 12.7753 5.16036 12.1071C4.87088 11.4389 4.72292 10.7228 4.725 10C4.72292 9.27717 4.87088 8.56109 5.16036 7.8929C5.44985 7.22472 5.87515 6.61762 6.41182 6.1065C6.9485 5.59538 7.58595 5.19033 8.28755 4.91463C8.98914 4.63893 9.74103 4.49802 10.5 4.5Z" fill="white"/>
</g>
<defs>
<clipPath id="clip0_286_3007">
<rect width="21" height="20" fill="white"/>
</clipPath>
</defs>
</svg>
