<svg width="24" height="24" viewBox="0 0 24 24" fill="none" xmlns="http://www.w3.org/2000/svg">
<path d="M20.3792 8.57L19.1492 10.42C19.7424 11.6031 20.0328 12.9148 19.9944 14.2377C19.956 15.5606 19.59 16.8533 18.9292 18H5.0692C4.21036 16.5101 3.85449 14.7831 4.05434 13.0751C4.25418 11.367 4.99911 9.76882 6.17867 8.51743C7.35824 7.26603 8.90966 6.42804 10.6029 6.1277C12.2962 5.82735 14.0412 6.08063 15.5792 6.85L17.4292 5.62C15.5457 4.41222 13.3115 3.871 11.0841 4.08294C8.85665 4.29487 6.76464 5.2477 5.14269 6.78901C3.52074 8.33033 2.46256 10.3711 2.13741 12.5848C1.81227 14.7986 2.23895 17.0574 3.3492 19C3.52371 19.3023 3.77428 19.5536 4.07603 19.7291C4.37777 19.9045 4.72017 19.9979 5.0692 20H18.9192C19.2716 20.0014 19.6181 19.9096 19.9237 19.734C20.2293 19.5584 20.483 19.3052 20.6592 19C21.5806 17.4039 22.043 15.5843 21.9953 13.742C21.9477 11.8996 21.3918 10.1063 20.3892 8.56L20.3792 8.57Z" fill="white"/>
<path d="M10.5905 15.41C10.7762 15.5959 10.9968 15.7435 11.2396 15.8441C11.4824 15.9448 11.7426 15.9966 12.0055 15.9966C12.2683 15.9966 12.5286 15.9448 12.7714 15.8441C13.0142 15.7435 13.2347 15.5959 13.4205 15.41L19.0805 6.91998L10.5905 12.58C10.4045 12.7657 10.257 12.9863 10.1564 13.2291C10.0557 13.4719 10.0039 13.7322 10.0039 13.995C10.0039 14.2578 10.0557 14.5181 10.1564 14.7609C10.257 15.0037 10.4045 15.2242 10.5905 15.41Z" fill="white"/>
</svg>
