<svg width="38" height="38" viewBox="0 0 38 38" fill="none" xmlns="http://www.w3.org/2000/svg">
<path d="M30.0833 26.917V18.6837C29.2917 18.842 28.5 19.0003 27.7083 19.0003H26.9167V28.5003H11.0833V17.417C11.0833 12.9837 14.5667 9.50033 19 9.50033C19.1583 7.44199 20.1083 5.70033 21.375 4.27533C20.9 3.64199 19.95 3.16699 19 3.16699C17.2583 3.16699 15.8333 4.59199 15.8333 6.33366V6.80866C11.0833 8.23366 7.91667 12.5087 7.91667 17.417V26.917L4.75 30.0837V31.667H33.25V30.0837L30.0833 26.917ZM15.8333 33.2503C15.8333 34.992 17.2583 36.417 19 36.417C20.7417 36.417 22.1667 34.992 22.1667 33.2503H15.8333ZM33.25 10.292C33.25 13.3003 30.7167 15.8337 27.7083 15.8337C24.7 15.8337 22.1667 13.3003 22.1667 10.292C22.1667 7.28366 24.7 4.75033 27.7083 4.75033C30.7167 4.75033 33.25 7.28366 33.25 10.292Z" fill="white"/>
<circle cx="27.6363" cy="10.3638" r="6.04545" fill="#D90606"/>
</svg>
